<svg width="1024" height="1024" viewBox="0 0 1024 1024" fill="none" xmlns="http://www.w3.org/2000/svg">
<defs>
<clipPath id="rounded"><rect width="1024" height="1024" rx="160" fill="white"/></clipPath>
<clipPath id="clip0_115_2"><rect width="710" height="613" fill="white" transform="translate(157 205)"/></clipPath>
</defs>
<g clip-path="url(#rounded)">
<rect width="1024" height="1024" fill="#0051FF"/>
<g clip-path="url(#clip0_115_2)">
<path fill-rule="evenodd" clip-rule="evenodd" d="M490.577 207.423C423.666 219.486 398.349 267.454 371.887 321.258C308.1 451.013 246.554 582.174 183.81 712.581C171.256 738.349 148.153 774.435 160.551 797.963C170.683 817.192 205.714 831.939 231.291 787.958C291.535 673.602 363.344 516.854 419.212 396.688C438.329 355.625 471.408 258.126 531.209 283.348C560.354 295.646 606.09 393.196 621.9 424.593C673.783 527.589 721.864 633.581 771.221 738.505C782.785 763.102 796.329 800.022 814.144 811.304C848.681 833.216 876.498 797.546 863.866 759.584C856.469 737.385 837.976 704.243 826.829 680.767C769.215 559.559 697.094 404.582 638.023 290.044C612.706 244.369 569.626 193.197 490.577 207.449V207.423Z" fill="#F7F7F7"/>
<path fill-rule="evenodd" clip-rule="evenodd" d="M380.039 611.617C392.255 653.8 458.255 698.798 520.582 695.541C573.533 692.779 651.749 647.235 646.279 597.026C644.664 582.331 632.813 569.642 618.41 567.401C578.847 561.226 566.423 624.957 506.153 619.642C468.829 616.333 457.395 588.975 436.767 575.244C410.382 557.631 369.256 574.462 380.039 611.643V611.617Z" fill="#F7F7F7"/>
</g>
</g>
</svg>
